<svg xmlns="http://www.w3.org/2000/svg" width="74" height="32" fill="none"><path fill="#fafafa" d="M33.052 23.82A16.16 16.16 0 0 1 20.22 32a17.15 17.15 0 0 0 8.673-6.941zm.78-14.053A15.9 15.9 0 0 1 35.097 16c0 .972-.087 1.923-.253 2.846h4.389l-1.303 3.244H30.39c.386-1.001.675-2.037.864-3.093v-.15h.026c.518-3.056.19-6.195-.947-9.08zm-23.495 0-1.303 3.242H3.256v2.027h4.72l-1.301 3.243h-3.42v3.81H0V9.768zM20.755 22.09H17.5l-3.337-8.283-3.338 8.283H7.569l4.966-12.323h3.256zm4.491-12.323a4.265 4.265 0 0 1 4.218 4.255c0 1.507-.798 2.9-2.099 3.665l1.774 4.403h-3.256l-1.535-3.811h-2.686l-1.307-3.243h4.836a1.015 1.015 0 0 0 .053-2.025l-.053-.002h-5.653l-1.306-3.242zM52.757 22.09h-3.256l-3.337-8.283-3.337 8.283h-3.255l4.965-12.323h3.255zm3.877-12.323h.05c2.093.026 3.78 1.72 3.78 3.806 0 .456-.08.895-.23 1.301a3.81 3.81 0 0 1 2.127 3.41c0 2.085-1.688 3.779-3.78 3.805h-3.213l-1.172-2.9h4.335a.91.91 0 0 0 .912-.906.91.91 0 0 0-.912-.906h-5.065l-1.172-2.898h4.34a.91.91 0 0 0 .913-.906.91.91 0 0 0-.864-.906l-.048-.001h-5.066l-1.172-2.9zm14.524 2.899h-5.056a.91.91 0 0 0-.818.442.9.9 0 0 0 0 .928.91.91 0 0 0 .818.442h4.326l-.004.008A3.81 3.81 0 0 1 74 18.283a3.813 3.813 0 0 1-3.772 3.806h-6.273l1.169-2.9h5.055a.906.906 0 0 0 .047-1.81l-.047-.002h-4.326l.003-.007a3.813 3.813 0 0 1-3.576-3.797 3.814 3.814 0 0 1 3.773-3.806h6.274zM20.216 0a16.16 16.16 0 0 1 12.706 7.952L28.715 6.67A17.15 17.15 0 0 0 20.216 0"/></svg>